# Base plate: 22.5cm x 22.5cm x 2cm with rounded vertical edges
# 33 profile points, fillet radius=8.0mm, 8 segments

v 0.112500 0.104500 0.010000
v 0.112346 0.106061 0.010000
v 0.111891 0.107561 0.010000
v 0.111152 0.108945 0.010000
v 0.110157 0.110157 0.010000
v 0.108945 0.111152 0.010000
v 0.107561 0.111891 0.010000
v 0.106061 0.112346 0.010000
v 0.104500 0.112500 0.010000
v -0.106061 0.112346 0.010000
v -0.107561 0.111891 0.010000
v -0.108945 0.111152 0.010000
v -0.110157 0.110157 0.010000
v -0.111152 0.108945 0.010000
v -0.111891 0.107561 0.010000
v -0.112346 0.106061 0.010000
v -0.112500 0.104500 0.010000
v -0.112346 -0.106061 0.010000
v -0.111891 -0.107561 0.010000
v -0.111152 -0.108945 0.010000
v -0.110157 -0.110157 0.010000
v -0.108945 -0.111152 0.010000
v -0.107561 -0.111891 0.010000
v -0.106061 -0.112346 0.010000
v -0.104500 -0.112500 0.010000
v 0.106061 -0.112346 0.010000
v 0.107561 -0.111891 0.010000
v 0.108945 -0.111152 0.010000
v 0.110157 -0.110157 0.010000
v 0.111152 -0.108945 0.010000
v 0.111891 -0.107561 0.010000
v 0.112346 -0.106061 0.010000
v 0.112500 -0.104500 0.010000
v 0.112500 0.104500 -0.010000
v 0.112346 0.106061 -0.010000
v 0.111891 0.107561 -0.010000
v 0.111152 0.108945 -0.010000
v 0.110157 0.110157 -0.010000
v 0.108945 0.111152 -0.010000
v 0.107561 0.111891 -0.010000
v 0.106061 0.112346 -0.010000
v 0.104500 0.112500 -0.010000
v -0.106061 0.112346 -0.010000
v -0.107561 0.111891 -0.010000
v -0.108945 0.111152 -0.010000
v -0.110157 0.110157 -0.010000
v -0.111152 0.108945 -0.010000
v -0.111891 0.107561 -0.010000
v -0.112346 0.106061 -0.010000
v -0.112500 0.104500 -0.010000
v -0.112346 -0.106061 -0.010000
v -0.111891 -0.107561 -0.010000
v -0.111152 -0.108945 -0.010000
v -0.110157 -0.110157 -0.010000
v -0.108945 -0.111152 -0.010000
v -0.107561 -0.111891 -0.010000
v -0.106061 -0.112346 -0.010000
v -0.104500 -0.112500 -0.010000
v 0.106061 -0.112346 -0.010000
v 0.107561 -0.111891 -0.010000
v 0.108945 -0.111152 -0.010000
v 0.110157 -0.110157 -0.010000
v 0.111152 -0.108945 -0.010000
v 0.111891 -0.107561 -0.010000
v 0.112346 -0.106061 -0.010000
v 0.112500 -0.104500 -0.010000
v 0.000000 0.000000 0.010000
v 0.000000 0.000000 -0.010000

vn 0.000000 0.000000 1.000000
vn 0.000000 0.000000 1.000000
vn 0.000000 0.000000 1.000000
vn 0.000000 0.000000 1.000000
vn 0.000000 0.000000 1.000000
vn 0.000000 0.000000 1.000000
vn 0.000000 0.000000 1.000000
vn 0.000000 0.000000 1.000000
vn 0.000000 -0.000000 1.000000
vn 0.000000 0.000000 1.000000
vn 0.000000 0.000000 1.000000
vn 0.000000 0.000000 1.000000
vn 0.000000 0.000000 1.000000
vn 0.000000 0.000000 1.000000
vn 0.000000 0.000000 1.000000
vn 0.000000 0.000000 1.000000
vn 0.000000 0.000000 1.000000
vn 0.000000 0.000000 1.000000
vn 0.000000 0.000000 1.000000
vn 0.000000 0.000000 1.000000
vn 0.000000 0.000000 1.000000
vn 0.000000 0.000000 1.000000
vn 0.000000 0.000000 1.000000
vn 0.000000 0.000000 1.000000
vn 0.000000 0.000000 1.000000
vn 0.000000 0.000000 1.000000
vn 0.000000 0.000000 1.000000
vn 0.000000 0.000000 1.000000
vn 0.000000 0.000000 1.000000
vn 0.000000 0.000000 1.000000
vn 0.000000 0.000000 1.000000
vn 0.000000 0.000000 1.000000
vn -0.000000 0.000000 1.000000
vn 0.000000 0.000000 -1.000000
vn 0.000000 0.000000 -1.000000
vn 0.000000 0.000000 -1.000000
vn 0.000000 0.000000 -1.000000
vn 0.000000 0.000000 -1.000000
vn 0.000000 0.000000 -1.000000
vn 0.000000 0.000000 -1.000000
vn 0.000000 0.000000 -1.000000
vn 0.000000 0.000000 -1.000000
vn 0.000000 0.000000 -1.000000
vn 0.000000 0.000000 -1.000000
vn 0.000000 0.000000 -1.000000
vn 0.000000 0.000000 -1.000000
vn 0.000000 0.000000 -1.000000
vn 0.000000 0.000000 -1.000000
vn 0.000000 0.000000 -1.000000
vn -0.000000 0.000000 -1.000000
vn 0.000000 0.000000 -1.000000
vn 0.000000 0.000000 -1.000000
vn 0.000000 0.000000 -1.000000
vn 0.000000 0.000000 -1.000000
vn 0.000000 0.000000 -1.000000
vn 0.000000 0.000000 -1.000000
vn 0.000000 0.000000 -1.000000
vn 0.000000 -0.000000 -1.000000
vn 0.000000 0.000000 -1.000000
vn 0.000000 0.000000 -1.000000
vn 0.000000 0.000000 -1.000000
vn 0.000000 0.000000 -1.000000
vn 0.000000 0.000000 -1.000000
vn 0.000000 0.000000 -1.000000
vn 0.000000 0.000000 -1.000000
vn 0.000000 0.000000 -1.000000
vn 0.995185 0.098017 0.000000
vn 0.995185 0.098017 0.000000
vn 0.956940 0.290285 0.000000
vn 0.956940 0.290285 0.000000
vn 0.881921 0.471397 0.000000
vn 0.881921 0.471397 0.000000
vn 0.773010 0.634393 0.000000
vn 0.773010 0.634393 0.000000
vn 0.634393 0.773010 0.000000
vn 0.634393 0.773010 0.000000
vn 0.471397 0.881921 0.000000
vn 0.471397 0.881921 0.000000
vn 0.290285 0.956940 0.000000
vn 0.290285 0.956940 0.000000
vn 0.098017 0.995185 0.000000
vn 0.098017 0.995185 0.000000
vn -0.000730 1.000000 0.000000
vn -0.000730 1.000000 0.000000
vn -0.290285 0.956940 0.000000
vn -0.290285 0.956940 0.000000
vn -0.471397 0.881921 0.000000
vn -0.471397 0.881921 0.000000
vn -0.634393 0.773010 0.000000
vn -0.634393 0.773010 0.000000
vn -0.773010 0.634393 0.000000
vn -0.773010 0.634393 0.000000
vn -0.881921 0.471397 0.000000
vn -0.881921 0.471397 0.000000
vn -0.956940 0.290285 0.000000
vn -0.956940 0.290285 0.000000
vn -0.995185 0.098017 0.000000
vn -0.995185 0.098017 0.000000
vn -1.000000 -0.000730 -0.000000
vn -1.000000 -0.000730 0.000000
vn -0.956940 -0.290285 -0.000000
vn -0.956940 -0.290285 0.000000
vn -0.881921 -0.471397 -0.000000
vn -0.881921 -0.471397 0.000000
vn -0.773010 -0.634393 -0.000000
vn -0.773010 -0.634393 0.000000
vn -0.634393 -0.773010 -0.000000
vn -0.634393 -0.773010 0.000000
vn -0.471397 -0.881921 -0.000000
vn -0.471397 -0.881921 0.000000
vn -0.290285 -0.956940 -0.000000
vn -0.290285 -0.956940 0.000000
vn -0.098017 -0.995185 -0.000000
vn -0.098017 -0.995185 0.000000
vn 0.000730 -1.000000 0.000000
vn 0.000730 -1.000000 0.000000
vn 0.290285 -0.956940 0.000000
vn 0.290285 -0.956940 0.000000
vn 0.471397 -0.881921 0.000000
vn 0.471397 -0.881921 0.000000
vn 0.634393 -0.773010 0.000000
vn 0.634393 -0.773010 0.000000
vn 0.773010 -0.634393 0.000000
vn 0.773010 -0.634393 0.000000
vn 0.881921 -0.471397 0.000000
vn 0.881921 -0.471397 0.000000
vn 0.956940 -0.290285 0.000000
vn 0.956940 -0.290285 0.000000
vn 0.995185 -0.098017 0.000000
vn 0.995185 -0.098017 0.000000
vn 1.000000 0.000000 0.000000
vn 1.000000 -0.000000 0.000000

f 67//1 1//1 2//1
f 67//2 2//2 3//2
f 67//3 3//3 4//3
f 67//4 4//4 5//4
f 67//5 5//5 6//5
f 67//6 6//6 7//6
f 67//7 7//7 8//7
f 67//8 8//8 9//8
f 67//9 9//9 10//9
f 67//10 10//10 11//10
f 67//11 11//11 12//11
f 67//12 12//12 13//12
f 67//13 13//13 14//13
f 67//14 14//14 15//14
f 67//15 15//15 16//15
f 67//16 16//16 17//16
f 67//17 17//17 18//17
f 67//18 18//18 19//18
f 67//19 19//19 20//19
f 67//20 20//20 21//20
f 67//21 21//21 22//21
f 67//22 22//22 23//22
f 67//23 23//23 24//23
f 67//24 24//24 25//24
f 67//25 25//25 26//25
f 67//26 26//26 27//26
f 67//27 27//27 28//27
f 67//28 28//28 29//28
f 67//29 29//29 30//29
f 67//30 30//30 31//30
f 67//31 31//31 32//31
f 67//32 32//32 33//32
f 67//33 33//33 1//33
f 68//34 35//34 34//34
f 68//35 36//35 35//35
f 68//36 37//36 36//36
f 68//37 38//37 37//37
f 68//38 39//38 38//38
f 68//39 40//39 39//39
f 68//40 41//40 40//40
f 68//41 42//41 41//41
f 68//42 43//42 42//42
f 68//43 44//43 43//43
f 68//44 45//44 44//44
f 68//45 46//45 45//45
f 68//46 47//46 46//46
f 68//47 48//47 47//47
f 68//48 49//48 48//48
f 68//49 50//49 49//49
f 68//50 51//50 50//50
f 68//51 52//51 51//51
f 68//52 53//52 52//52
f 68//53 54//53 53//53
f 68//54 55//54 54//54
f 68//55 56//55 55//55
f 68//56 57//56 56//56
f 68//57 58//57 57//57
f 68//58 59//58 58//58
f 68//59 60//59 59//59
f 68//60 61//60 60//60
f 68//61 62//61 61//61
f 68//62 63//62 62//62
f 68//63 64//63 63//63
f 68//64 65//64 64//64
f 68//65 66//65 65//65
f 68//66 34//66 66//66
f 1//67 34//67 35//67
f 1//68 35//68 2//68
f 2//69 35//69 36//69
f 2//70 36//70 3//70
f 3//71 36//71 37//71
f 3//72 37//72 4//72
f 4//73 37//73 38//73
f 4//74 38//74 5//74
f 5//75 38//75 39//75
f 5//76 39//76 6//76
f 6//77 39//77 40//77
f 6//78 40//78 7//78
f 7//79 40//79 41//79
f 7//80 41//80 8//80
f 8//81 41//81 42//81
f 8//82 42//82 9//82
f 9//83 42//83 43//83
f 9//84 43//84 10//84
f 10//85 43//85 44//85
f 10//86 44//86 11//86
f 11//87 44//87 45//87
f 11//88 45//88 12//88
f 12//89 45//89 46//89
f 12//90 46//90 13//90
f 13//91 46//91 47//91
f 13//92 47//92 14//92
f 14//93 47//93 48//93
f 14//94 48//94 15//94
f 15//95 48//95 49//95
f 15//96 49//96 16//96
f 16//97 49//97 50//97
f 16//98 50//98 17//98
f 17//99 50//99 51//99
f 17//100 51//100 18//100
f 18//101 51//101 52//101
f 18//102 52//102 19//102
f 19//103 52//103 53//103
f 19//104 53//104 20//104
f 20//105 53//105 54//105
f 20//106 54//106 21//106
f 21//107 54//107 55//107
f 21//108 55//108 22//108
f 22//109 55//109 56//109
f 22//110 56//110 23//110
f 23//111 56//111 57//111
f 23//112 57//112 24//112
f 24//113 57//113 58//113
f 24//114 58//114 25//114
f 25//115 58//115 59//115
f 25//116 59//116 26//116
f 26//117 59//117 60//117
f 26//118 60//118 27//118
f 27//119 60//119 61//119
f 27//120 61//120 28//120
f 28//121 61//121 62//121
f 28//122 62//122 29//122
f 29//123 62//123 63//123
f 29//124 63//124 30//124
f 30//125 63//125 64//125
f 30//126 64//126 31//126
f 31//127 64//127 65//127
f 31//128 65//128 32//128
f 32//129 65//129 66//129
f 32//130 66//130 33//130
f 33//131 66//131 34//131
f 33//132 34//132 1//132
