# OBJ generated by ONSHAPE BY PTC INC, 1.207 Units = meters
mtllib t-shape_outline.mtl
g Part 1
v 0.11 0.0002 -0.035 
v 0.11 0 -0.035 
v -0.11 0 -0.035 
v -0.11 0.0002 -0.035 
v -0.11 0 0.035 
v -0.11 0.0002 0.035 
v -0.035 0 0.035 
v -0.035 0.0002 0.035 
v -0.035 0 0.185 
v -0.035 0.0002 0.185 
v 0.035 0 0.185 
v 0.035 0.0002 0.185 
v 0.035 0 0.035 
v 0.035 0.0002 0.035 
v 0.11 0 0.035 
v 0.11 0.0002 0.035 
v 0.1 0.0002 0.025 
v 0.025 0.0002 0.025 
v 0.025 0.0002 0.175 
v 0.1 0.0002 -0.025 
v -0.1 0.0002 -0.025 
v -0.1 0.0002 0.025 
v -0.025 0.0002 0.175 
v -0.025 0.0002 0.025 
v -0.1 0 0.025 
v -0.025 0 0.025 
v -0.1 0 -0.025 
v 0.025 0 0.175 
v -0.025 0 0.175 
v 0.1 0 -0.025 
v 0.1 0 0.025 
v 0.025 0 0.025 
vn 0 0 -1 
vn -1 0 0 
vn 0 0 1 
vn 1 0 -3.70074e-16 
vn 0 1 0 
vn 0 -1 0 
vn 0 0 -1 
vn 1 0 0 
vn 0 0 1 
vn -1 0 0 
vn 0 0 -1 
vn 1 0 1.61908e-16 
usemtl 0.615686_0.811765_0.929412_0.000000_0.000000
o mesh0
f 1//1 2//1 3//1 
f 3//1 4//1 1//1 
o mesh1
f 4//2 3//2 5//2 
f 5//2 6//2 4//2 
o mesh2
f 6//3 5//3 7//3 
f 7//3 8//3 6//3 
o mesh3
f 8//2 7//2 9//2 
f 9//2 10//2 8//2 
o mesh4
f 10//3 9//3 11//3 
f 11//3 12//3 10//3 
o mesh5
f 12//4 11//4 13//4 
f 13//4 14//4 12//4 
o mesh6
f 14//3 13//3 15//3 
f 15//3 16//3 14//3 
o mesh7
f 16//4 15//4 2//4 
f 2//4 1//4 16//4 
o mesh8
f 17//5 18//5 14//5 
f 14//5 18//5 19//5 
f 19//5 12//5 14//5 
f 1//5 20//5 17//5 
f 17//5 16//5 1//5 
f 1//5 4//5 21//5 
f 21//5 20//5 1//5 
f 4//5 6//5 22//5 
f 8//5 10//5 23//5 
f 10//5 12//5 19//5 
f 22//5 21//5 4//5 
f 22//5 6//5 8//5 
f 19//5 23//5 10//5 
f 8//5 24//5 22//5 
f 14//5 16//5 17//5 
f 23//5 24//5 8//5 
o mesh9
f 25//6 26//6 7//6 
f 3//6 27//6 25//6 
f 13//6 11//6 28//6 
f 11//6 9//6 29//6 
f 25//6 5//6 3//6 
f 3//6 2//6 30//6 
f 29//6 28//6 11//6 
f 7//6 26//6 29//6 
f 30//6 27//6 3//6 
f 29//6 9//6 7//6 
f 2//6 15//6 31//6 
f 31//6 15//6 13//6 
f 28//6 32//6 13//6 
f 13//6 32//6 31//6 
f 31//6 30//6 2//6 
f 7//6 5//6 25//6 
o mesh10
f 24//7 26//7 25//7 
f 25//7 22//7 24//7 
o mesh11
f 22//8 25//8 27//8 
f 27//8 21//8 22//8 
o mesh12
f 21//9 27//9 30//9 
f 30//9 20//9 21//9 
o mesh13
f 20//10 30//10 31//10 
f 31//10 17//10 20//10 
o mesh14
f 17//11 31//11 32//11 
f 32//11 18//11 17//11 
o mesh15
f 18//10 32//10 28//10 
f 28//10 19//10 18//10 
o mesh16
f 19//11 28//11 29//11 
f 29//11 23//11 19//11 
o mesh17
f 23//12 29//12 26//12 
f 26//12 24//12 23//12 
